<?xml version="1.0" encoding="utf-8"?>
<!-- Generator: Adobe Illustrator 17.0.0, SVG Export Plug-In . SVG Version: 6.00 Build 0)  -->
<!DOCTYPE svg PUBLIC "-//W3C//DTD SVG 1.1//EN" "http://www.w3.org/Graphics/SVG/1.1/DTD/svg11.dtd">
<svg version="1.1" xmlns="http://www.w3.org/2000/svg" xmlns:xlink="http://www.w3.org/1999/xlink" x="0px" y="0px" width="580px"
	 height="800px" viewBox="0 0 580 800" enable-background="new 0 0 580 800" xml:space="preserve">
<g id="Layer_1" display="none">
	
		<image display="inline" overflow="visible" width="580" height="800" xlink:href="../../../Volumes/GALAXY/03. PRODUCTS/21. Gear 360_2017/03. 3D/05. OUTPUT/+ FINAL/GEAR360_170315_JPG/GEAR360_170315_7_145.jpg" >
	</image>
</g>
<g id="Layer_2">
	<g id="Layer_2_xA0_Image_1_">
		<g id="_x39_YN329.tif">
			<g>
				<path d="M376.3333435,82.3333359C409.5,104,421.5,129,422.5,129.1666718c1,0.1666565,1.75,1.3333282,1.75,1.3333282
					c19,24,24.0176697,74.6598206,24.0176697,74.6598206l0.1392212,13.2309418
					c-0.1972046,10.2029724-1.5040588,20.2804718-3.8933716,30.174942
					c-4.4415283,18.3929138-12.8200684,36.9674683-24.6058655,52.1473083
					c-3.5726013,4.6014709-6.6043396,8.6697388-10.5051575,12.9592285
					c-7.1657104,7.8797607-13.7287292,14.4035034-21.2465515,21.9559021
					c-6.4612122,6.4908447-10.0076599,14.1564331-9.4070435,23.3471375
					c1.7409363,26.6393433,5.4520874,54.1851501,9.2373962,80.6433105
					c3.4340515,24.0047302,6.4724121,48.0525818,8.6350403,72.2084045c0.6303406,7.040741,1.1929626,14.087738,1.6844788,21.1395569
					c0.5369873,7.7038574,1.0010071,15.4127197,1.3936462,23.1252441
					c1.4311218,28.1123657,3.0401917,58.7539673,2.4326477,85.6549072
					c0.0119019,14.850769-0.2032471,24.3230591-0.6314087,33.8527222c-0.1659546,0.9327393,0.3899231,2.1629639,0.4917297,3.142334
					c0.2546997,2.4503174,0.3693542,3.1779175,0.1742249,5.5915527c-0.3884277,4.8042603-1.3726196,11.8549805-2.0406799,16.6358643
					c-0.44104,3.15625-2.46875,2.9240723-4.7720642,5.428894c-0.8178711,0.8895264-0.8306274,3.2143555-0.9651184,4.4824219
					c-0.66922,6.3092041-3.4423828,11.7960205-6.6249084,17.0842896c-4.3798218,7.277832-8.8484802,10.2984619-17.2974243,11.795166
					c-14.0108948,2.4818726-29.1625977,3.1853027-43.2962646,3.4158936
					c-24.6526489,0.4021606-49.3213806,0.4016113-73.9739838-0.0028076
					c-13.7988129-0.2263794-27.5939941-1.0487061-41.3187714-3.1642456
					c-11.183548-1.7237549-18.4070892-6.6812744-23.1086426-16.5603638
					c-5.0828857-10.6803589-7.2893066-22.0930176-8.8047333-33.6735229
					c-1.8835449-14.3935547-2.237915-28.8654175-2.2080994-43.3768921
					c0.0694885-33.8272705,0.485321-67.6454468,3.3263397-101.3676147
					c2.3621368-28.0379639,4.8621216-56.0740051,7.9750366-84.0358887
					c2.2649994-20.3455505,5.6483459-41.5661316,8.4957428-61.8476257
					c1.8986511-13.5235901,3.8271637-27.0360413,3.8367767-40.7524414
					c0.0060577-8.6413269-2.8623505-15.971283-8.8866425-22.0845642c-3.1571655-3.2038269-6.3732758-6.3526001-9.6381836-9.4466553
					c-43.69104-41.4046326-60.0052185-101.2367401-42.8588867-158.8857117
					c17.1914368-57.8005981,67.4503326-101.1128998,127.2641754-109.6833954
					C267.2703247,58.2941132,323.3333435,46.3333321,376.3333435,82.3333359z"/>
			</g>
		</g>
	</g>
</g>
</svg>
